<svg width="11" height="6" viewBox="0 0 11 6" fill="none" xmlns="http://www.w3.org/2000/svg">
<path d="M1.7739 0.279259L5.50003 3.69817L9.22613 0.279259C9.63191 -0.0930836 10.2898 -0.0930836 10.6957 0.279259C10.7464 0.325807 10.7907 0.375959 10.8288 0.428875C11.0951 0.798911 11.0507 1.30186 10.6957 1.62765L6.2348 5.72073C6.03986 5.89951 5.77561 6 5.50003 6C5.22435 6 4.9601 5.89951 4.76527 5.72073L0.30435 1.62765C-0.10145 1.25533 -0.10145 0.651602 0.30435 0.279259C0.35508 0.232721 0.409748 0.19199 0.467368 0.157084C0.870705 -0.0872671 1.41882 -0.0465455 1.7739 0.279259Z" fill="#ADB5BD"/>
</svg>
