<svg width="11" height="6" viewBox="0 0 11 6" fill="none" xmlns="http://www.w3.org/2000/svg">
<path id="Vector" d="M9.2261 5.72074L5.49997 2.30183L1.77387 5.72074C1.36809 6.09308 0.710217 6.09308 0.304334 5.72074C0.253625 5.67419 0.209252 5.62404 0.171221 5.57112C-0.095108 5.20109 -0.0507355 4.69814 0.304334 4.37235L4.7652 0.279266C4.96014 0.100493 5.22439 0 5.49997 0C5.77565 0 6.0399 0.100493 6.23473 0.279266L10.6957 4.37235C11.1014 4.74467 11.1014 5.3484 10.6957 5.72074C10.6449 5.76728 10.5903 5.80801 10.5326 5.84292C10.1293 6.08727 9.58118 6.04655 9.2261 5.72074Z" fill="#212529"/>
</svg>
