<svg width="100%" height="100%" viewBox="0 0 56 56" fill="none" xmlns="http://www.w3.org/2000/svg">
<rect x="55.5" y="0.5" width="55" height="55" rx="27.5" transform="rotate(90 55.5 0.5)" fill="white"/>
<path fill-rule="evenodd" clip-rule="evenodd" d="M49.3858 26.5221C49.4238 26.5224 49.4619 26.5225 49.5 26.5225L49.5 29.2103L49.4991 29.2103L49.4991 29.3396C40.3627 29.3396 32.8969 38.3258 32.8969 49.4982L30.6097 49.4982C30.6097 40.6877 34.7427 33.011 40.815 29.2022L6.50001 29.2022L6.50001 26.515L40.5112 26.515C34.5443 22.6794 30.4968 15.145 30.4968 6.5L32.784 6.5C32.784 17.3952 40.0379 26.2223 49.0384 26.515L49.3858 26.515L49.3858 26.5221Z" fill="black"/>
<rect x="55.5" y="0.5" width="55" height="55" rx="27.5" transform="rotate(90 55.5 0.5)" stroke="black"/>
</svg>
