<svg width="226" height="30" viewBox="0 0 226 30" fill="none" xmlns="http://www.w3.org/2000/svg">
<path d="M3.78 7.02C3.78 14.545 20.3 11.955 20.3 21.545C20.3 25.955 16.73 29.07 11.06 29.07C5.39 29.07 1.855 25.885 1.855 25.885L0.525 18.885L1.015 18.78C3.36 24.87 6.895 28.65 11.445 28.65C15.155 28.65 17.85 26.2 17.85 22.84C17.85 14.86 1.33 17.555 1.33 8.21C1.33 4.08 5.215 1 10.64 1C13.3 1 16.38 2.26 18.48 3.345L19.845 10.345L19.355 10.45C16.975 5.095 14.14 1.455 9.975 1.455C6.44 1.455 3.78 3.975 3.78 7.02ZM43.5832 8.63C43.2332 4.955 40.1882 2.12 36.5132 2.015H34.4832V24.975C34.4832 26.69 35.8482 28.09 37.5632 28.09V28.58H28.5682V28.09C29.4082 28.09 30.1782 27.74 30.7382 27.18C31.2982 26.62 31.6482 25.815 31.6482 24.975V2.015H29.6182C25.9432 2.12 22.8982 4.955 22.5482 8.63H22.0582L22.2332 6.635L22.6882 1.525H43.4432L43.8982 6.635L44.0732 8.63H43.5832ZM67.3501 27.495C67.8751 27.88 68.5051 28.09 69.1701 28.09V28.58H59.6501V28.09C61.4351 28.09 62.6951 26.27 62.0651 24.59L59.0901 16.68C58.7051 15.63 57.3751 15.315 56.5701 16.12L47.5751 25.115C47.2601 25.43 47.0851 25.885 47.0851 26.305C47.0851 26.83 47.3301 27.355 47.7851 27.67C47.9601 27.81 48.1701 27.915 48.3801 27.985C48.5901 28.055 48.8001 28.09 49.0451 28.09V28.58H42.3951V28.09C43.8301 28.09 45.0901 27.18 45.5801 25.85L53.2451 4.99C53.3151 4.745 53.3851 4.5 53.3851 4.255C53.3851 3.065 52.4051 2.015 51.1451 2.015V1.525H57.0951L66.1601 25.99C66.4051 26.62 66.8251 27.145 67.3501 27.495ZM57.0601 14.965C57.6901 14.335 57.8651 13.39 57.5851 12.55L54.2601 3.66L47.1901 22.945C46.9101 23.645 47.7851 24.205 48.3101 23.68L57.0601 14.965ZM82.8866 15.28H81.5916L94.6116 27.705C94.8566 27.95 95.2066 28.09 95.5566 28.09V28.58H88.7666V28.09C89.6766 28.09 90.1316 26.97 89.4316 26.34L79.1766 16.435C78.3366 15.665 77.2516 15.28 76.1316 15.28V24.975C76.1316 26.69 77.5316 28.055 79.2466 28.055V28.58H70.2516V28.055C71.9666 28.055 73.3316 26.69 73.3316 24.975V5.13C73.3316 4.255 72.9816 3.485 72.4216 2.925C71.8966 2.365 71.0916 2.015 70.2516 2.015V1.525H84.0766C87.5416 1.665 90.5516 4.29 90.8316 7.79C90.9366 9.05 90.5516 10.31 89.8866 11.43C88.4516 13.88 85.7216 15.245 82.8866 15.28ZM76.1666 14.79V14.825H81.3116C83.5866 14.825 85.8266 13.775 87.0166 11.85C87.6816 10.835 88.0316 9.61 88.0316 8.28C88.0316 8.07 88.0316 7.825 87.9966 7.58C87.6816 4.36 84.7416 2.015 81.4866 2.015H76.1666V14.79ZM117.514 8.63C117.164 4.955 114.119 2.12 110.444 2.015H108.414V24.975C108.414 26.69 109.779 28.09 111.494 28.09V28.58H102.499V28.09C103.339 28.09 104.109 27.74 104.669 27.18C105.229 26.62 105.579 25.815 105.579 24.975V2.015H103.549C99.8739 2.12 96.8289 4.955 96.4789 8.63H95.9889L96.1639 6.635L96.6189 1.525H117.374L117.829 6.635L118.004 8.63H117.514ZM160.891 7.72C162.221 9.75 162.991 12.515 162.991 15.035C162.991 17.59 162.221 20.355 160.891 22.385C159.526 24.45 157.566 25.92 155.641 27.215C155.011 27.6 154.346 27.915 153.681 28.195C150.671 29.385 147.311 29.385 144.301 28.23C143.566 27.95 142.866 27.6 142.236 27.215C140.311 25.92 138.351 24.45 136.986 22.385C135.656 20.355 134.886 17.59 134.886 15.035C134.886 12.515 135.656 9.75 136.986 7.72C138.351 5.655 140.311 4.185 142.236 2.89C142.866 2.47 143.566 2.155 144.301 1.875C147.311 0.719999 150.671 0.719999 153.681 1.91C154.346 2.19 155.011 2.505 155.641 2.89C157.566 4.185 159.526 5.655 160.891 7.72ZM158.616 21.16C159.351 19.165 159.666 17.1 159.666 15.035C159.666 13.005 159.351 10.94 158.616 8.91C157.881 6.95 156.796 5.06 155.046 3.695C154.976 3.66 154.906 3.59 154.836 3.555C151.301 1.07 146.576 1.07 143.041 3.555C142.971 3.59 142.901 3.66 142.831 3.695C141.081 5.06 139.996 6.95 139.261 8.91C138.526 10.94 138.211 13.005 138.211 15.035C138.211 17.1 138.526 19.165 139.261 21.16C139.996 23.155 141.081 25.045 142.831 26.41C142.901 26.445 142.971 26.515 143.041 26.55C146.576 29.035 151.301 29.035 154.836 26.55C154.906 26.515 154.976 26.445 155.046 26.41C156.796 25.045 157.881 23.155 158.616 21.16ZM186.528 8.63H186.038C185.688 4.885 182.538 2.015 178.793 2.015H170.918V12.515C170.918 13.775 171.933 14.79 173.193 14.79H175.783C178.268 14.79 180.263 12.76 180.263 10.275H180.788V19.795H180.263C180.263 18.535 179.773 17.415 178.968 16.61C178.128 15.77 177.008 15.28 175.748 15.28H173.193C171.933 15.28 170.918 16.295 170.918 17.555V24.975C170.918 26.69 172.283 28.09 173.998 28.09V28.58H165.003V28.055C165.878 28.055 166.648 27.74 167.208 27.18C167.768 26.62 168.118 25.815 168.118 24.975V5.13C168.118 3.415 166.718 2.015 165.003 2.015V1.525H185.898L186.528 8.63ZM210.283 8.63H209.793C209.443 4.885 206.293 2.015 202.548 2.015H194.673V12.515C194.673 13.775 195.688 14.79 196.948 14.79H199.538C202.023 14.79 204.018 12.76 204.018 10.275H204.543V19.795H204.018C204.018 18.535 203.528 17.415 202.723 16.61C201.883 15.77 200.763 15.28 199.503 15.28H196.948C195.688 15.28 194.673 16.295 194.673 17.555V24.975C194.673 26.69 196.038 28.09 197.753 28.09V28.58H188.758V28.055C189.633 28.055 190.403 27.74 190.963 27.18C191.523 26.62 191.873 25.815 191.873 24.975V5.13C191.873 3.415 190.473 2.015 188.758 2.015V1.525H209.653L210.283 8.63ZM222.542 7.72L223.942 10.625L221.037 9.225L219.987 12.235L218.972 9.19L216.067 10.625L217.467 7.72L214.387 6.67L217.432 5.62L216.032 2.715L218.937 4.115L219.987 1L221.072 4.115L223.977 2.68L222.542 5.62L225.622 6.67L222.542 7.72Z" fill="none"/>
</svg>
